<?xml version="1.0" encoding="UTF-8"?>
<!DOCTYPE svg PUBLIC "-//W3C//DTD SVG 1.1//EN" "http://www.w3.org/Graphics/SVG/1.1/DTD/svg11.dtd">
<svg xmlns="http://www.w3.org/2000/svg" version="1.1" width="500px" height="500px" style="shape-rendering:geometricPrecision; text-rendering:geometricPrecision; image-rendering:optimizeQuality; fill-rule:evenodd; clip-rule:evenodd" xmlns:xlink="http://www.w3.org/1999/xlink">
<g><path style="opacity:1" fill="#fefefe" d="M -0.5,-0.5 C 166.167,-0.5 332.833,-0.5 499.5,-0.5C 499.5,166.167 499.5,332.833 499.5,499.5C 332.833,499.5 166.167,499.5 -0.5,499.5C -0.5,332.833 -0.5,166.167 -0.5,-0.5 Z"/></g>
<g><path style="opacity:1" fill="#040404" d="M 363.5,188.5 C 363.5,192.5 363.5,196.5 363.5,200.5C 364.791,200.263 365.791,200.596 366.5,201.5C 364.541,216.258 363.875,231.258 364.5,246.5C 363.5,246.5 362.5,246.5 361.5,246.5C 362.535,233.696 360.035,221.696 354,210.5C 352.264,212.063 350.764,213.73 349.5,215.5C 348.662,215.158 348.328,214.492 348.5,213.5C 349.81,211.852 351.143,210.186 352.5,208.5C 347.717,200.431 340.717,195.265 331.5,193C 304.783,187.944 284.616,197.111 271,220.5C 257.684,253.226 258.684,285.559 274,317.5C 274.77,318.598 275.603,318.598 276.5,317.5C 277.396,316.494 278.062,316.494 278.5,317.5C 277.859,318.482 277.193,319.482 276.5,320.5C 285.357,333.937 297.691,342.437 313.5,346C 351.91,349.925 372.244,332.592 374.5,294C 382.121,294.356 389.788,294.523 397.5,294.5C 400.352,293.742 403.019,293.742 405.5,294.5C 396.012,297.555 386.346,298.221 376.5,296.5C 376.134,314.772 369.801,330.606 357.5,344C 342.031,356.504 324.364,361.504 304.5,359C 287.709,357.101 273.043,350.601 260.5,339.5C 257.147,342.522 253.813,345.522 250.5,348.5C 252.388,345.101 254.888,342.101 258,339.5C 258.74,338.251 258.573,337.251 257.5,336.5C 241.32,319.191 233.653,298.524 234.5,274.5C 198.5,274.5 162.5,274.5 126.5,274.5C 126.5,273.5 126.5,272.5 126.5,271.5C 130.247,271.608 133.914,271.108 137.5,270C 139.726,268.773 141.226,266.939 142,264.5C 142.5,237.835 142.667,211.169 142.5,184.5C 141.167,184.5 139.833,184.5 138.5,184.5C 138.062,184.565 137.728,184.399 137.5,184C 138.737,183.768 139.737,183.268 140.5,182.5C 141.811,171.893 142.477,161.059 142.5,150C 142.333,139.5 142.167,129 142,118.5C 141.315,115.943 139.815,114.109 137.5,113C 133.94,111.763 130.273,111.263 126.5,111.5C 126.5,110.5 126.5,109.5 126.5,108.5C 166.073,108.17 205.573,108.503 245,109.5C 248.735,120.87 252.568,132.204 256.5,143.5C 256,143.833 255.5,144.167 255,144.5C 251.55,136.938 247.55,129.605 243,122.5C 238.498,117.663 232.998,114.497 226.5,113C 209.085,110.709 191.751,111.042 174.5,114C 172.413,114.792 170.579,115.959 169,117.5C 167.356,138.744 167.023,160.078 168,181.5C 169.167,182.667 170.333,183.833 171.5,185C 182.167,185.667 192.833,185.667 203.5,185C 212,183.167 217.167,178 219,169.5C 219.499,163.509 219.666,157.509 219.5,151.5C 220.5,151.5 221.5,151.5 222.5,151.5C 222.5,176.5 222.5,201.5 222.5,226.5C 221.5,226.5 220.5,226.5 219.5,226.5C 219.666,219.159 219.5,211.826 219,204.5C 216.056,194.892 209.556,189.726 199.5,189C 190.482,188.168 181.482,188.335 172.5,189.5C 172.007,192.478 170.507,194.811 168,196.5C 167.333,218.833 167.333,241.167 168,263.5C 169.563,266.728 172.063,268.895 175.5,270C 189.556,272.189 203.556,271.855 217.5,269C 223.861,266.737 229.694,263.571 235,259.5C 246.033,204.579 279.2,181.079 334.5,189C 341.193,191.898 348.027,194.398 355,196.5C 355.833,196.333 356.667,196.167 357.5,196C 360.11,193.751 362.11,191.251 363.5,188.5 Z"/></g>
<g><path style="opacity:1" fill="#fefefe" d="M 138.5,184.5 C 139.833,184.5 141.167,184.5 142.5,184.5C 142.667,211.169 142.5,237.835 142,264.5C 141.226,266.939 139.726,268.773 137.5,270C 133.914,271.108 130.247,271.608 126.5,271.5C 126.5,272.5 126.5,273.5 126.5,274.5C 162.5,274.5 198.5,274.5 234.5,274.5C 233.653,298.524 241.32,319.191 257.5,336.5C 242.626,354.529 224.626,368.696 203.5,379C 157.594,395.481 118.094,385.981 85,350.5C 72.2835,334.727 64.7835,316.727 62.5,296.5C 62.4704,285.819 62.8037,275.152 63.5,264.5C 73.3646,223.636 98.3646,196.969 138.5,184.5 Z"/></g>
<g><path style="opacity:1" fill="#fcfcfc" d="M 348.5,213.5 C 341.864,221.647 335.364,229.981 329,238.5C 312.037,265.276 294.537,291.61 276.5,317.5C 275.603,318.598 274.77,318.598 274,317.5C 258.684,285.559 257.684,253.226 271,220.5C 284.616,197.111 304.783,187.944 331.5,193C 340.717,195.265 347.717,200.431 352.5,208.5C 351.143,210.186 349.81,211.852 348.5,213.5 Z"/></g>
<g><path style="opacity:1" fill="#1e1e1e" d="M 363.5,188.5 C 364.166,192.021 364.833,195.687 365.5,199.5C 389.036,189.307 409.869,193.307 428,211.5C 446.532,238.171 444.365,263.004 421.5,286C 416.584,289.625 411.25,292.458 405.5,294.5C 403.019,293.742 400.352,293.742 397.5,294.5C 430.047,284.077 442.547,262.077 435,228.5C 424.45,204.972 406.284,194.472 380.5,197C 375.597,197.89 370.93,199.39 366.5,201.5C 365.791,200.596 364.791,200.263 363.5,200.5C 363.5,196.5 363.5,192.5 363.5,188.5 Z"/></g>
<g><path style="opacity:1" fill="#fdfdfd" d="M 397.5,294.5 C 389.788,294.523 382.121,294.356 374.5,294C 372.244,332.592 351.91,349.925 313.5,346C 297.691,342.437 285.357,333.937 276.5,320.5C 277.193,319.482 277.859,318.482 278.5,317.5C 284.47,310.018 290.303,302.351 296,294.5C 312.853,267.446 330.687,241.113 349.5,215.5C 350.764,213.73 352.264,212.063 354,210.5C 360.035,221.696 362.535,233.696 361.5,246.5C 362.5,246.5 363.5,246.5 364.5,246.5C 363.875,231.258 364.541,216.258 366.5,201.5C 370.93,199.39 375.597,197.89 380.5,197C 406.284,194.472 424.45,204.972 435,228.5C 442.547,262.077 430.047,284.077 397.5,294.5 Z"/></g>
<g><path style="opacity:1" fill="#1b1b1b" d="M 348.5,213.5 C 348.328,214.492 348.662,215.158 349.5,215.5C 330.687,241.113 312.853,267.446 296,294.5C 290.303,302.351 284.47,310.018 278.5,317.5C 278.062,316.494 277.396,316.494 276.5,317.5C 294.537,291.61 312.037,265.276 329,238.5C 335.364,229.981 341.864,221.647 348.5,213.5 Z"/></g>
<g><path style="opacity:1" fill="#cecece" d="M 63.5,264.5 C 62.8037,275.152 62.4704,285.819 62.5,296.5C 61.8343,292.347 61.5009,288.013 61.5,283.5C 61.3198,276.928 61.9865,270.595 63.5,264.5 Z"/></g>
<g><path style="opacity:1" fill="#1b1b1b" d="M 140.5,182.5 C 139.737,183.268 138.737,183.768 137.5,184C 137.728,184.399 138.062,184.565 138.5,184.5C 98.3646,196.969 73.3646,223.636 63.5,264.5C 61.9865,270.595 61.3198,276.928 61.5,283.5C 61.5009,288.013 61.8343,292.347 62.5,296.5C 64.7835,316.727 72.2835,334.727 85,350.5C 118.094,385.981 157.594,395.481 203.5,379C 224.626,368.696 242.626,354.529 257.5,336.5C 258.573,337.251 258.74,338.251 258,339.5C 254.888,342.101 252.388,345.101 250.5,348.5C 243.13,356.026 235.13,362.86 226.5,369C 196.595,389.447 164.262,394.447 129.5,384C 80.6695,363.539 57.1695,326.706 59,273.5C 64.3544,235.583 83.8544,207.75 117.5,190C 124.901,186.588 132.567,184.088 140.5,182.5 Z"/></g>
</svg>
